<?xml version="1.0" encoding="UTF-8"?>
<svg xmlns="http://www.w3.org/2000/svg" viewBox="0 0 512 512" width="512" height="512">
  <!-- THE brand: MAJOR02 background, MAJOR01 mark (branding.trackinghighend.com icon, beige on dark) -->
  <rect width="512" height="512" fill="#0F172A"/>
  <g fill="#D9C8B7" transform="translate(45.35 32) scale(2.967)">
    <path d="M37.2444 145.078C29.7219 152.392 17.8543 152.734 9.92108 145.868L7.05835 143.392C-1.67471 135.834 -2.31092 122.509 5.66075 114.152L29.3679 89.2965C37.2036 81.0824 50.2669 80.9291 58.294 88.9562L70.3321 100.994L94.9043 76.422L71.4543 52.972L61.8919 62.7214C54.0942 70.6743 41.333 70.8214 33.3529 63.0513L6.11275 36.5308C-2.1161 28.5184 -2.02491 15.2673 6.31278 7.36827L8.24292 5.53944C16.194 -1.99237 28.6971 -1.82284 36.4416 5.9213L71.3945 40.8742L99.6426 12.0572C107.637 3.90253 120.797 3.98128 128.691 12.2339L135.767 19.6349C143.364 27.577 143.227 40.135 135.455 47.9063L106.942 76.422L134.941 104.421C142.966 112.446 142.813 125.503 134.603 133.339L128.262 139.394C120.408 146.891 108.036 146.844 100.238 139.29L71.6673 111.614L37.2444 145.078ZM39.2914 56.9544C43.9116 61.4528 51.3014 61.3668 55.8158 56.7621L65.4353 46.953L30.4226 11.9403C25.9388 7.45687 18.6989 7.35861 14.0957 11.7195L12.1681 13.5483C7.34102 18.1214 7.28728 25.7924 12.0512 30.4312L39.2914 56.9544ZM129.436 41.8873C133.935 37.3882 134.016 30.1169 129.618 25.5188L122.539 18.1178C117.969 13.34 110.35 13.2954 105.721 18.0165L77.4136 46.8932L100.923 70.403L129.436 41.8873ZM106.158 133.175C110.673 137.549 117.836 137.575 122.383 133.235L128.727 127.182C133.48 122.645 133.568 115.086 128.922 110.44L100.923 82.441L77.7305 105.634L106.158 133.175ZM15.4907 139.433C20.0835 143.408 26.9535 143.207 31.3085 138.974L64.2481 106.951L52.275 94.9752C47.6277 90.328 40.0637 90.4171 35.5272 95.1727L11.8201 120.025C7.20465 124.864 7.57448 132.579 12.6306 136.955L15.4907 139.433Z"/>
  </g>
</svg>
